<svg width="1371" height="915" viewBox="0 0 1371 915" fill="none" xmlns="http://www.w3.org/2000/svg">
<path d="M1108.95 353.845C1109.88 353.373 1110.78 352.845 1111.64 352.265C1118.43 360.116 1126.36 366.905 1135.17 372.405C1133.7 375.55 1132.89 378.962 1132.8 382.43C1132.7 385.899 1133.31 389.351 1134.59 392.575C1135.88 395.798 1137.81 398.725 1140.26 401.175C1142.72 403.626 1145.65 405.547 1148.88 406.822C1152.11 408.097 1155.56 408.699 1159.03 408.59C1162.5 408.48 1165.91 407.663 1169.05 406.188C1172.19 404.712 1175 402.61 1177.29 400.01C1179.59 397.41 1181.33 394.368 1182.41 391.07C1182.73 390.086 1182.98 389.084 1183.18 388.07C1193.54 388.824 1203.96 388.02 1214.08 385.685C1215.27 388.948 1217.11 391.934 1219.49 394.459C1221.87 396.984 1224.74 398.996 1227.93 400.37C1231.12 401.744 1234.55 402.452 1238.03 402.45C1241.5 402.448 1244.93 401.735 1248.12 400.357C1251.3 398.978 1254.17 396.963 1256.55 394.434C1258.93 391.906 1260.77 388.917 1261.95 385.653C1263.13 382.389 1263.63 378.918 1263.42 375.453C1263.21 371.988 1262.29 368.603 1260.72 365.505C1260.25 364.589 1259.72 363.701 1259.14 362.845C1267.01 356.063 1273.81 348.142 1279.32 339.345C1280.26 339.789 1281.21 340.175 1282.19 340.5C1285.37 341.555 1288.73 341.972 1292.07 341.727C1295.41 341.482 1298.67 340.58 1301.66 339.073C1304.65 337.565 1307.32 335.482 1309.5 332.942C1311.69 330.402 1313.35 327.456 1314.39 324.273C1315.43 321.09 1315.84 317.732 1315.58 314.392C1315.32 311.052 1314.41 307.796 1312.89 304.811C1311.37 301.825 1309.27 299.169 1306.73 296.995C1304.18 294.821 1301.23 293.171 1298.04 292.14C1297.06 291.825 1296.05 291.571 1295.04 291.38C1295.8 281.03 1295 270.624 1292.67 260.51C1295.94 259.333 1298.93 257.498 1301.47 255.119C1304 252.741 1306.02 249.868 1307.4 246.68C1308.77 243.491 1309.49 240.053 1309.48 236.579C1309.48 233.105 1308.77 229.668 1307.39 226.48C1306.01 223.292 1303.99 220.421 1301.46 218.043C1298.93 215.665 1295.93 213.832 1292.66 212.656C1289.39 211.48 1285.92 210.987 1282.45 211.206C1278.98 211.425 1275.6 212.352 1272.5 213.93C1271.58 214.403 1270.69 214.931 1269.84 215.51C1263.05 207.659 1255.12 200.87 1246.31 195.37C1247.78 192.225 1248.59 188.813 1248.69 185.345C1248.79 181.876 1248.17 178.424 1246.89 175.2C1245.61 171.977 1243.68 169.05 1241.22 166.6C1238.76 164.149 1235.83 162.228 1232.6 160.953C1229.37 159.678 1225.92 159.076 1222.45 159.185C1218.98 159.295 1215.57 160.112 1212.43 161.587C1209.29 163.063 1206.49 165.165 1204.19 167.765C1201.89 170.365 1200.15 173.407 1199.07 176.705C1198.75 177.689 1198.5 178.691 1198.3 179.705C1187.94 178.951 1177.52 179.755 1167.4 182.09C1166.2 178.85 1164.35 175.89 1161.96 173.388C1159.58 170.886 1156.71 168.896 1153.53 167.539C1150.35 166.182 1146.93 165.486 1143.48 165.493C1140.02 165.501 1136.6 166.212 1133.43 167.583C1130.26 168.955 1127.4 170.957 1125.03 173.469C1122.66 175.982 1120.82 178.951 1119.63 182.196C1118.44 185.44 1117.93 188.893 1118.12 192.344C1118.31 195.794 1119.2 199.17 1120.73 202.265C1121.21 203.18 1121.74 204.067 1122.31 204.92C1114.45 211.703 1107.65 219.624 1102.13 228.42C1101.2 227.976 1100.24 227.59 1099.26 227.265C1096.08 226.21 1092.73 225.793 1089.39 226.038C1086.05 226.283 1082.79 227.185 1079.8 228.692C1076.8 230.2 1074.14 232.283 1071.96 234.823C1069.77 237.363 1068.11 240.309 1067.07 243.492C1066.02 246.675 1065.62 250.033 1065.88 253.373C1066.14 256.713 1067.05 259.969 1068.57 262.954C1070.09 265.94 1072.18 268.596 1074.73 270.77C1077.28 272.944 1080.23 274.594 1083.42 275.625C1084.4 275.94 1085.4 276.194 1086.42 276.385C1085.66 286.735 1086.45 297.142 1088.78 307.255C1085.51 308.432 1082.52 310.267 1079.99 312.646C1077.46 315.024 1075.44 317.897 1074.06 321.085C1072.68 324.274 1071.97 327.712 1071.97 331.186C1071.97 334.66 1072.69 338.097 1074.07 341.285C1075.45 344.473 1077.47 347.344 1080 349.722C1082.53 352.1 1085.53 353.933 1088.79 355.109C1092.06 356.285 1095.54 356.778 1099.01 356.559C1102.47 356.34 1105.86 355.413 1108.95 353.835V353.845ZM1169.34 241.765C1177.67 237.547 1187.07 235.896 1196.34 237.018C1205.62 238.141 1214.35 241.989 1221.44 248.074C1228.52 254.159 1233.65 262.208 1236.16 271.205C1238.67 280.201 1238.46 289.741 1235.55 298.618C1232.64 307.494 1227.17 315.309 1219.82 321.075C1212.47 326.84 1203.58 330.297 1194.26 331.009C1184.95 331.72 1175.63 329.654 1167.49 325.072C1159.35 320.49 1152.76 313.597 1148.53 305.265C1142.88 294.084 1141.9 281.117 1145.8 269.211C1149.7 257.306 1158.17 247.435 1169.34 241.765Z" fill="white"/>
<path d="M1158.14 409.71C1153.95 409.715 1149.82 408.725 1146.08 406.822C1142.35 404.919 1139.12 402.156 1136.66 398.762C1134.2 395.368 1132.58 391.438 1131.93 387.296C1131.28 383.154 1131.63 378.918 1132.94 374.935C1133.16 374.255 1133.44 373.57 1133.74 372.825C1125.44 367.531 1117.92 361.095 1111.41 353.705C1110.73 354.135 1110.08 354.505 1109.45 354.825C1106.33 356.469 1102.92 357.478 1099.42 357.791C1095.91 358.104 1092.37 357.716 1089.02 356.649C1085.66 355.582 1082.55 353.858 1079.87 351.577C1077.19 349.296 1074.98 346.503 1073.39 343.363C1071.8 340.222 1070.85 336.795 1070.59 333.283C1070.34 329.771 1070.78 326.243 1071.9 322.905C1073.03 319.567 1074.8 316.486 1077.13 313.841C1079.45 311.196 1082.28 309.041 1085.45 307.5C1086.08 307.175 1086.76 306.875 1087.51 306.575C1085.39 296.962 1084.63 287.099 1085.26 277.275C1084.48 277.095 1083.76 276.9 1083.09 276.68C1079.77 275.604 1076.7 273.883 1074.05 271.617C1071.4 269.352 1069.22 266.585 1067.64 263.476C1066.06 260.367 1065.11 256.977 1064.85 253.5C1064.58 250.024 1065 246.528 1066.09 243.215C1068.29 236.526 1073.05 230.982 1079.33 227.796C1085.61 224.61 1092.89 224.041 1099.59 226.215C1100.27 226.435 1100.95 226.715 1101.7 227.02C1107.01 218.718 1113.46 211.204 1120.86 204.7C1120.42 204.015 1120.06 203.38 1119.74 202.74C1118.16 199.63 1117.21 196.241 1116.95 192.765C1116.68 189.289 1117.1 185.795 1118.19 182.482C1119.27 179.169 1121 176.102 1123.27 173.457C1125.54 170.812 1128.31 168.64 1131.42 167.065C1137.71 163.882 1145 163.323 1151.7 165.511C1158.39 167.699 1163.95 172.455 1167.14 178.735C1167.47 179.375 1167.77 180.04 1168.06 180.795C1177.69 178.666 1187.56 177.905 1197.4 178.535C1197.58 177.745 1197.78 177.035 1198 176.355C1200.2 169.667 1204.96 164.124 1211.24 160.938C1217.52 157.752 1224.8 157.183 1231.5 159.355C1234.81 160.431 1237.89 162.152 1240.54 164.418C1243.19 166.683 1245.36 169.45 1246.94 172.559C1248.52 175.668 1249.47 179.058 1249.74 182.535C1250.01 186.011 1249.58 189.507 1248.5 192.82C1248.28 193.495 1248 194.19 1247.69 194.93C1256 200.221 1263.52 206.657 1270.02 214.05C1270.71 213.62 1271.35 213.255 1271.99 212.93C1275.1 211.286 1278.51 210.277 1282.02 209.964C1285.53 209.651 1289.06 210.039 1292.42 211.106C1295.77 212.173 1298.88 213.897 1301.57 216.178C1304.25 218.459 1306.45 221.252 1308.04 224.393C1309.64 227.533 1310.59 230.96 1310.84 234.472C1311.1 237.984 1310.65 241.512 1309.53 244.85C1308.41 248.188 1306.63 251.269 1304.31 253.914C1301.98 256.559 1299.15 258.714 1295.99 260.255C1295.35 260.58 1294.68 260.88 1293.93 261.18C1296.05 270.793 1296.8 280.656 1296.17 290.48C1296.95 290.66 1297.67 290.855 1298.35 291.075C1301.66 292.151 1304.74 293.872 1307.39 296.138C1310.04 298.403 1312.21 301.17 1313.79 304.279C1315.37 307.388 1316.32 310.778 1316.59 314.255C1316.86 317.731 1316.43 321.227 1315.35 324.54C1313.15 331.228 1308.39 336.771 1302.11 339.957C1295.83 343.143 1288.54 343.712 1281.85 341.54C1281.17 341.32 1280.48 341.04 1279.74 340.735C1274.43 349.037 1267.98 356.551 1260.58 363.055C1261.01 363.74 1261.38 364.385 1261.7 365.015C1263.27 368.125 1264.22 371.514 1264.49 374.99C1264.75 378.466 1264.33 381.96 1263.25 385.273C1262.16 388.586 1260.43 391.653 1258.16 394.298C1255.89 396.943 1253.12 399.115 1250.01 400.69C1243.73 403.869 1236.44 404.428 1229.75 402.243C1223.06 400.058 1217.5 395.308 1214.31 389.035C1213.99 388.405 1213.68 387.725 1213.39 386.975C1203.76 389.101 1193.89 389.862 1184.05 389.235C1183.87 390.025 1183.67 390.735 1183.45 391.415C1181.7 396.741 1178.3 401.376 1173.76 404.661C1169.22 407.946 1163.75 409.713 1158.14 409.71ZM1111.64 351.165C1111.8 351.165 1111.96 351.199 1112.1 351.265C1112.25 351.33 1112.37 351.426 1112.48 351.545C1119.2 359.315 1127.04 366.033 1135.75 371.475C1135.98 371.618 1136.15 371.839 1136.22 372.097C1136.3 372.355 1136.28 372.632 1136.16 372.875C1135.74 373.766 1135.37 374.683 1135.06 375.62C1134.06 378.657 1133.68 381.861 1133.92 385.048C1134.17 388.235 1135.04 391.342 1136.48 394.192C1137.93 397.043 1139.92 399.58 1142.35 401.659C1144.78 403.738 1147.59 405.319 1150.63 406.31C1156.77 408.306 1163.45 407.788 1169.21 404.868C1174.98 401.948 1179.35 396.864 1181.37 390.73C1181.67 389.788 1181.91 388.83 1182.1 387.86C1182.15 387.595 1182.29 387.357 1182.51 387.194C1182.72 387.031 1182.99 386.954 1183.26 386.98C1193.51 387.722 1203.82 386.927 1213.83 384.62C1214.09 384.559 1214.37 384.596 1214.6 384.724C1214.84 384.852 1215.02 385.062 1215.11 385.315C1216.27 388.567 1218.12 391.533 1220.51 394.015C1222.91 396.497 1225.82 398.438 1229.03 399.707C1232.24 400.977 1235.68 401.546 1239.13 401.377C1242.58 401.207 1245.95 400.303 1249.02 398.725C1252.11 397.187 1254.84 395.004 1257.02 392.324C1259.19 389.644 1260.77 386.529 1261.64 383.188C1262.52 379.847 1262.66 376.359 1262.07 372.956C1261.48 369.554 1260.17 366.318 1258.23 363.465C1258.08 363.242 1258.02 362.972 1258.05 362.706C1258.09 362.439 1258.22 362.196 1258.42 362.02C1266.2 355.308 1272.93 347.466 1278.39 338.755C1278.53 338.527 1278.75 338.36 1279.01 338.285C1279.27 338.209 1279.54 338.231 1279.79 338.345C1282.91 339.829 1286.31 340.629 1289.77 340.691C1293.22 340.754 1296.65 340.077 1299.82 338.706C1302.99 337.335 1305.84 335.303 1308.16 332.744C1310.48 330.185 1312.23 327.16 1313.29 323.87C1314.28 320.832 1314.67 317.628 1314.43 314.441C1314.18 311.254 1313.31 308.146 1311.86 305.295C1310.42 302.445 1308.42 299.908 1305.99 297.829C1303.57 295.75 1300.75 294.17 1297.71 293.18C1296.77 292.883 1295.81 292.641 1294.84 292.455C1294.58 292.404 1294.34 292.258 1294.18 292.044C1294.02 291.83 1293.94 291.563 1293.96 291.295C1294.71 281.054 1293.92 270.757 1291.62 260.75C1291.56 260.489 1291.59 260.214 1291.72 259.978C1291.85 259.742 1292.06 259.561 1292.31 259.47C1293.24 259.137 1294.15 258.75 1295.04 258.31C1297.91 256.877 1300.47 254.89 1302.57 252.463C1304.67 250.037 1306.27 247.219 1307.28 244.171C1308.28 241.124 1308.68 237.907 1308.44 234.707C1308.2 231.506 1307.32 228.385 1305.87 225.523C1304.42 222.661 1302.42 220.114 1299.97 218.03C1297.53 215.946 1294.71 214.365 1291.65 213.378C1288.6 212.392 1285.38 212.019 1282.18 212.282C1278.98 212.545 1275.86 213.438 1273.01 214.91C1272.13 215.356 1271.28 215.857 1270.46 216.41C1270.24 216.559 1269.97 216.622 1269.71 216.586C1269.44 216.55 1269.2 216.418 1269.02 216.215C1262.3 208.443 1254.46 201.725 1245.74 196.285C1245.51 196.142 1245.35 195.921 1245.27 195.663C1245.2 195.405 1245.22 195.128 1245.33 194.885C1245.76 193.994 1246.13 193.077 1246.44 192.14C1247.43 189.102 1247.82 185.898 1247.58 182.71C1247.33 179.523 1246.46 176.414 1245.02 173.564C1243.57 170.713 1241.58 168.175 1239.15 166.097C1236.72 164.018 1233.9 162.439 1230.86 161.45C1224.72 159.455 1218.04 159.975 1212.28 162.895C1206.52 165.814 1202.15 170.897 1200.13 177.03C1199.83 177.972 1199.58 178.93 1199.4 179.9C1199.35 180.164 1199.2 180.401 1198.99 180.563C1198.77 180.726 1198.51 180.803 1198.24 180.78C1187.99 180.036 1177.68 180.831 1167.66 183.14C1167.4 183.2 1167.13 183.163 1166.89 183.035C1166.66 182.907 1166.47 182.697 1166.38 182.445C1166.05 181.514 1165.66 180.604 1165.22 179.72C1162.29 173.951 1157.2 169.579 1151.05 167.567C1144.91 165.555 1138.21 166.067 1132.44 168.99C1126.67 171.913 1122.3 177.009 1120.29 183.155C1118.28 189.302 1118.79 195.996 1121.71 201.765C1122.16 202.642 1122.66 203.492 1123.21 204.31C1123.36 204.533 1123.42 204.803 1123.39 205.069C1123.35 205.336 1123.22 205.579 1123.02 205.755C1115.24 212.466 1108.51 220.307 1103.05 229.015C1102.91 229.243 1102.69 229.41 1102.43 229.487C1102.17 229.563 1101.9 229.543 1101.65 229.43C1100.76 229.006 1099.84 228.637 1098.9 228.325C1092.76 226.33 1086.08 226.85 1080.32 229.77C1074.56 232.689 1070.19 237.772 1068.17 243.905C1067.17 246.943 1066.79 250.147 1067.03 253.334C1067.27 256.521 1068.14 259.629 1069.59 262.48C1071.04 265.33 1073.03 267.867 1075.46 269.946C1077.89 272.025 1080.7 273.605 1083.74 274.595C1084.68 274.896 1085.65 275.138 1086.62 275.32C1086.88 275.372 1087.12 275.519 1087.28 275.733C1087.44 275.946 1087.52 276.212 1087.5 276.48C1086.75 286.721 1087.54 297.018 1089.84 307.025C1089.9 307.286 1089.86 307.561 1089.73 307.797C1089.6 308.032 1089.39 308.213 1089.14 308.305C1088.21 308.637 1087.3 309.024 1086.41 309.465C1083.56 310.912 1081.03 312.905 1078.95 315.332C1076.87 317.759 1075.29 320.572 1074.29 323.61C1073.3 326.647 1072.92 329.851 1073.16 333.037C1073.41 336.224 1074.28 339.33 1075.73 342.18C1077.17 345.03 1079.17 347.567 1081.59 349.646C1084.02 351.725 1086.83 353.306 1089.87 354.298C1092.91 355.29 1096.11 355.674 1099.3 355.428C1102.49 355.183 1105.59 354.312 1108.44 352.865C1109.32 352.416 1110.17 351.915 1110.99 351.365C1111.18 351.231 1111.41 351.161 1111.64 351.165ZM1190.79 332.215C1178.93 332.23 1167.47 327.89 1158.6 320.019C1149.72 312.147 1144.05 301.291 1142.65 289.512C1141.25 277.732 1144.22 265.849 1151 256.117C1157.79 246.385 1167.91 239.482 1179.44 236.718C1190.98 233.954 1203.13 235.521 1213.58 241.121C1224.04 246.722 1232.08 255.967 1236.17 267.101C1240.26 278.235 1240.12 290.484 1235.78 301.523C1231.44 312.562 1223.19 321.622 1212.61 326.985C1205.84 330.418 1198.36 332.209 1190.76 332.215H1190.79ZM1169.84 242.765C1161.71 246.903 1154.99 253.358 1150.53 261.313C1146.07 269.269 1144.06 278.369 1144.77 287.462C1145.48 296.556 1148.87 305.236 1154.51 312.405C1160.15 319.573 1167.79 324.91 1176.46 327.739C1185.13 330.568 1194.44 330.763 1203.23 328.3C1212.01 325.837 1219.86 320.826 1225.8 313.899C1231.73 306.973 1235.48 298.443 1236.57 289.387C1237.66 280.331 1236.04 271.156 1231.92 263.02C1229.2 257.587 1225.43 252.748 1220.83 248.783C1216.23 244.818 1210.88 241.806 1205.11 239.922C1199.33 238.038 1193.24 237.319 1187.19 237.807C1181.13 238.295 1175.24 239.98 1169.84 242.765Z" fill="black"/>
<path d="M1250.64 134.04C1251.17 133.771 1251.68 133.469 1252.17 133.135C1256.08 137.653 1260.64 141.56 1265.71 144.725C1265.46 145.26 1265.23 145.811 1265.05 146.375C1263.92 150.048 1264.27 154.018 1266.04 157.43C1267.81 160.842 1270.85 163.422 1274.5 164.614C1278.16 165.807 1282.13 165.516 1285.57 163.804C1289.01 162.093 1291.64 159.098 1292.9 155.465C1293.08 154.899 1293.22 154.323 1293.34 153.74C1299.3 154.17 1305.29 153.708 1311.12 152.37C1311.32 152.929 1311.55 153.475 1311.82 154.005C1313.61 157.408 1316.67 159.97 1320.33 161.137C1324 162.305 1327.98 161.984 1331.41 160.245C1334.84 158.506 1337.45 155.488 1338.67 151.841C1339.9 148.195 1339.64 144.213 1337.96 140.755C1337.68 140.228 1337.38 139.718 1337.05 139.225C1341.57 135.329 1345.48 130.778 1348.66 125.725C1349.2 125.978 1349.75 126.198 1350.31 126.385C1352.14 126.989 1354.07 127.226 1355.99 127.082C1357.91 126.939 1359.78 126.419 1361.5 125.551C1363.22 124.683 1364.75 123.484 1366.01 122.024C1367.26 120.564 1368.21 118.87 1368.81 117.04C1369.41 115.211 1369.65 113.281 1369.5 111.361C1369.35 109.441 1368.83 107.57 1367.95 105.853C1367.08 104.136 1365.88 102.609 1364.42 101.357C1362.95 100.106 1361.26 99.1552 1359.43 98.56C1358.86 98.3806 1358.29 98.2337 1357.7 98.12C1358.14 92.1653 1357.68 86.1789 1356.34 80.36C1358.3 79.6602 1360.08 78.5522 1361.58 77.1095C1363.07 75.6668 1364.24 73.9225 1365.01 71.9926C1365.78 70.0628 1366.13 67.9915 1366.03 65.9165C1365.94 63.8415 1365.4 61.8103 1364.46 59.958C1363.52 58.1057 1362.2 56.4747 1360.58 55.1734C1358.96 53.8721 1357.08 52.9304 1355.07 52.4108C1353.06 51.8912 1350.96 51.8056 1348.92 52.1598C1346.87 52.514 1344.92 53.2998 1343.2 54.465C1339.29 49.9363 1334.72 46.021 1329.64 42.85C1329.9 42.3137 1330.12 41.7628 1330.31 41.2C1330.94 39.2974 1331.18 37.2857 1331 35.2895C1330.82 33.2932 1330.23 31.3548 1329.27 29.5942C1328.32 27.8336 1327.01 26.2882 1325.43 25.0536C1323.85 23.8191 1322.03 22.9216 1320.1 22.4167C1318.16 21.9119 1316.13 21.8104 1314.15 22.1185C1312.17 22.4266 1310.28 23.1378 1308.58 24.2081C1306.89 25.2783 1305.43 26.6849 1304.3 28.3408C1303.17 29.9967 1302.39 31.8666 1302.02 33.835C1296.06 33.4001 1290.06 33.8619 1284.24 35.205C1284.04 34.6458 1283.8 34.0997 1283.54 33.57C1281.74 30.1668 1278.68 27.605 1275.02 26.4376C1271.35 25.2701 1267.38 25.5905 1263.95 27.3297C1260.51 29.0688 1257.9 32.0873 1256.68 35.7336C1255.45 39.38 1255.71 43.3619 1257.4 46.82C1257.67 47.3465 1257.98 47.8573 1258.31 48.35C1253.78 52.254 1249.87 56.8128 1246.7 61.875C1246.16 61.6224 1245.61 61.402 1245.04 61.215C1243.21 60.6114 1241.28 60.3744 1239.36 60.5175C1237.44 60.6606 1235.57 61.1811 1233.85 62.0491C1232.13 62.9171 1230.6 64.1156 1229.35 65.5759C1228.09 67.0362 1227.14 68.7298 1226.54 70.5595C1225.94 72.3892 1225.71 74.3192 1225.86 76.2389C1226 78.1586 1226.53 80.0304 1227.4 81.747C1228.27 83.4637 1229.47 84.9914 1230.94 86.2429C1232.4 87.4943 1234.1 88.4448 1235.93 89.04C1236.49 89.2194 1237.07 89.3663 1237.65 89.48C1237.22 95.4347 1237.67 101.421 1239.01 107.24C1238.45 107.439 1237.91 107.672 1237.38 107.94C1235.64 108.797 1234.1 109.99 1232.83 111.45C1231.56 112.909 1230.59 114.606 1229.98 116.441C1229.37 118.277 1229.13 120.216 1229.27 122.145C1229.41 124.075 1229.94 125.957 1230.81 127.682C1231.69 129.407 1232.9 130.942 1234.37 132.197C1235.84 133.452 1237.55 134.402 1239.39 134.994C1241.23 135.585 1243.17 135.805 1245.1 135.641C1247.03 135.478 1248.91 134.933 1250.62 134.04H1250.64ZM1285.39 69.54C1290.18 67.1129 1295.59 66.1622 1300.93 66.8081C1306.26 67.454 1311.29 69.6675 1315.37 73.1687C1319.44 76.67 1322.39 81.3018 1323.84 86.4786C1325.28 91.6553 1325.16 97.1446 1323.49 102.252C1321.82 107.36 1318.67 111.857 1314.44 115.175C1310.21 118.493 1305.09 120.482 1299.73 120.892C1294.37 121.302 1289.01 120.113 1284.33 117.477C1279.64 114.84 1275.85 110.874 1273.42 106.08C1270.17 99.6472 1269.6 92.1881 1271.85 85.3395C1274.09 78.491 1278.96 72.8124 1285.39 69.55V69.54Z" fill="white"/>
<path d="M1278.95 166.655C1276.47 166.657 1274.02 166.07 1271.8 164.941C1269.59 163.812 1267.67 162.175 1266.21 160.162C1264.75 158.15 1263.79 155.82 1263.41 153.365C1263.03 150.909 1263.23 148.397 1264 146.035C1264.09 145.745 1264.2 145.45 1264.33 145.145C1259.75 142.189 1255.59 138.631 1251.97 134.565C1251.69 134.735 1251.41 134.885 1251.14 135.025C1247.41 136.909 1243.09 137.24 1239.12 135.943C1235.16 134.647 1231.86 131.83 1229.97 128.11C1229.03 126.266 1228.47 124.257 1228.31 122.196C1228.16 120.135 1228.41 118.063 1229.05 116.099C1229.69 114.135 1230.72 112.316 1232.07 110.748C1233.41 109.18 1235.05 107.893 1236.9 106.96C1237.17 106.82 1237.45 106.69 1237.76 106.56C1236.62 101.235 1236.2 95.7814 1236.51 90.345C1236.2 90.265 1235.9 90.1801 1235.61 90.0851C1233.63 89.4519 1231.8 88.4339 1230.22 87.0898C1228.64 85.7458 1227.34 84.1021 1226.39 82.2534C1225.45 80.4047 1224.88 78.3876 1224.72 76.3181C1224.56 74.2486 1224.81 72.1677 1225.45 70.1951C1226.1 68.2225 1227.13 66.3972 1228.48 64.8243C1229.84 63.2514 1231.49 61.9619 1233.34 61.0301C1235.2 60.0983 1237.22 59.5427 1239.29 59.3951C1241.36 59.2474 1243.44 59.5108 1245.41 60.17C1245.69 60.26 1245.99 60.37 1246.29 60.495C1249.26 55.92 1252.82 51.7658 1256.9 48.1451C1256.73 47.8601 1256.58 47.5851 1256.44 47.3151C1254.59 43.5927 1254.29 39.2911 1255.6 35.3469C1256.91 31.4028 1259.72 28.1355 1263.43 26.2567C1267.13 24.378 1271.43 24.0398 1275.39 25.3159C1279.34 26.592 1282.63 29.3791 1284.54 33.07C1284.68 33.34 1284.81 33.625 1284.94 33.93C1290.27 32.7891 1295.73 32.367 1301.17 32.675C1301.25 32.3601 1301.34 32.0551 1301.44 31.7701C1302.74 27.8045 1305.57 24.5178 1309.29 22.6294C1313.01 20.7411 1317.33 20.4051 1321.3 21.695C1323.27 22.3357 1325.09 23.3574 1326.66 24.7017C1328.23 26.046 1329.52 27.6865 1330.45 29.5296C1331.39 31.3726 1331.95 33.3819 1332.11 35.4428C1332.27 37.5036 1332.02 39.5755 1331.38 41.54C1331.28 41.83 1331.17 42.12 1331.05 42.43C1335.63 45.3882 1339.78 48.9466 1343.41 53.01C1343.69 52.84 1343.97 52.6901 1344.24 52.5501C1346.08 51.615 1348.09 51.0521 1350.15 50.8935C1352.21 50.7349 1354.28 50.9836 1356.25 51.6255C1358.21 52.2674 1360.03 53.2898 1361.6 54.6345C1363.17 55.9792 1364.46 57.6198 1365.39 59.4625C1366.33 61.3053 1366.89 63.3142 1367.05 65.3745C1367.21 67.4348 1366.96 69.5062 1366.32 71.4704C1365.67 73.4346 1364.65 75.2531 1363.31 76.8222C1361.96 78.3912 1360.32 79.68 1358.48 80.6151C1358.21 80.7551 1357.92 80.885 1357.62 81.015C1358.76 86.3397 1359.18 91.7937 1358.86 97.23C1359.18 97.31 1359.48 97.3951 1359.77 97.4901C1361.76 98.1145 1363.6 99.1271 1365.19 100.469C1366.78 101.811 1368.1 103.456 1369.05 105.308C1370 107.161 1370.58 109.184 1370.74 111.26C1370.91 113.336 1370.66 115.424 1370.01 117.404C1369.36 119.383 1368.33 121.214 1366.96 122.791C1365.6 124.368 1363.94 125.659 1362.08 126.589C1360.22 127.519 1358.19 128.07 1356.11 128.21C1354.03 128.35 1351.95 128.077 1349.97 127.405C1349.68 127.31 1349.39 127.205 1349.08 127.08C1346.12 131.654 1342.55 135.808 1338.48 139.43C1338.65 139.715 1338.8 139.99 1338.94 140.26C1339.87 142.105 1340.44 144.116 1340.59 146.179C1340.75 148.241 1340.5 150.315 1339.86 152.281C1339.22 154.247 1338.19 156.067 1336.85 157.637C1335.5 159.208 1333.86 160.497 1332.01 161.433C1330.17 162.368 1328.15 162.931 1326.09 163.089C1324.03 163.247 1321.96 162.997 1319.99 162.354C1318.02 161.71 1316.2 160.686 1314.63 159.34C1313.06 157.993 1311.77 156.35 1310.84 154.505C1310.7 154.235 1310.57 153.95 1310.44 153.645C1305.11 154.786 1299.65 155.208 1294.2 154.9C1294.12 155.215 1294.04 155.52 1293.94 155.805C1292.9 158.96 1290.9 161.707 1288.2 163.655C1285.51 165.603 1282.28 166.653 1278.95 166.655ZM1252.17 132.03C1252.33 132.031 1252.49 132.065 1252.63 132.131C1252.78 132.196 1252.9 132.291 1253.01 132.41C1256.84 136.847 1261.32 140.683 1266.29 143.79C1266.52 143.932 1266.69 144.153 1266.77 144.411C1266.84 144.669 1266.82 144.946 1266.71 145.19C1265.9 146.923 1265.46 148.809 1265.43 150.723C1265.4 152.637 1265.78 154.536 1266.54 156.292C1267.3 158.049 1268.43 159.624 1269.84 160.912C1271.26 162.2 1272.93 163.173 1274.75 163.765C1278.17 164.875 1281.89 164.587 1285.09 162.963C1288.3 161.339 1290.73 158.512 1291.85 155.1C1292.02 154.576 1292.15 154.044 1292.26 153.505C1292.31 153.242 1292.46 153.007 1292.67 152.844C1292.89 152.681 1293.15 152.601 1293.42 152.62C1299.27 153.049 1305.16 152.595 1310.87 151.275C1311.14 151.214 1311.41 151.252 1311.65 151.381C1311.88 151.51 1312.06 151.721 1312.15 151.975C1312.34 152.487 1312.55 152.988 1312.8 153.475C1314.01 155.863 1315.91 157.838 1318.24 159.15C1320.58 160.462 1323.25 161.052 1325.92 160.847C1328.6 160.642 1331.15 159.649 1333.25 157.996C1335.36 156.342 1336.93 154.101 1337.77 151.555C1338.33 149.866 1338.54 148.084 1338.41 146.31C1338.27 144.537 1337.78 142.808 1336.97 141.225C1336.72 140.737 1336.44 140.264 1336.13 139.81C1335.98 139.587 1335.92 139.317 1335.96 139.051C1335.99 138.784 1336.13 138.541 1336.33 138.365C1340.77 134.532 1344.61 130.056 1347.73 125.085C1347.87 124.856 1348.09 124.687 1348.35 124.611C1348.6 124.534 1348.88 124.555 1349.12 124.67C1350.8 125.462 1352.62 125.901 1354.47 125.963C1356.32 126.024 1358.16 125.705 1359.88 125.026C1361.6 124.346 1363.17 123.321 1364.48 122.014C1365.79 120.706 1366.82 119.143 1367.5 117.423C1368.18 115.702 1368.5 113.86 1368.45 112.009C1368.39 110.159 1367.95 108.34 1367.16 106.665C1366.38 104.99 1365.25 103.495 1363.86 102.271C1362.47 101.047 1360.85 100.121 1359.09 99.55C1358.57 99.3843 1358.03 99.2491 1357.49 99.1451C1357.23 99.0943 1356.99 98.9481 1356.83 98.7343C1356.66 98.5205 1356.58 98.2539 1356.6 97.985C1357.04 92.1393 1356.59 86.2618 1355.27 80.55C1355.21 80.288 1355.25 80.0131 1355.38 79.7773C1355.5 79.5415 1355.72 79.361 1355.97 79.2701C1356.48 79.0845 1356.98 78.8692 1357.47 78.625C1359.12 77.793 1360.59 76.6309 1361.77 75.2103C1362.96 73.7897 1363.84 72.141 1364.37 70.366C1364.89 68.591 1365.04 66.7274 1364.82 64.8904C1364.59 63.0534 1363.99 61.282 1363.06 59.6858C1362.12 58.0895 1360.87 56.7023 1359.37 55.6098C1357.88 54.5173 1356.18 53.7428 1354.37 53.3341C1352.57 52.9254 1350.7 52.8912 1348.88 53.2336C1347.06 53.5761 1345.33 54.2879 1343.8 55.325C1343.58 55.4746 1343.31 55.5373 1343.04 55.5014C1342.77 55.4654 1342.53 55.3334 1342.35 55.1301C1338.52 50.6988 1334.05 46.8678 1329.08 43.765C1328.86 43.6221 1328.69 43.4011 1328.61 43.1434C1328.54 42.8857 1328.56 42.609 1328.67 42.3651C1328.91 41.8678 1329.11 41.3569 1329.29 40.8351C1329.84 39.1466 1330.06 37.3656 1329.92 35.5937C1329.79 33.8219 1329.31 32.0939 1328.5 30.5087C1327.7 28.9234 1326.59 27.5119 1325.24 26.3548C1323.9 25.1977 1322.33 24.3177 1320.64 23.765C1318.82 23.1615 1316.89 22.9538 1314.98 23.1558C1313.07 23.3577 1311.23 23.9648 1309.57 24.9363C1307.91 25.9078 1306.48 27.2216 1305.38 28.7897C1304.27 30.3579 1303.51 32.1444 1303.14 34.03C1303.09 34.2943 1302.95 34.5307 1302.73 34.6939C1302.52 34.8571 1302.25 34.9359 1301.98 34.915C1296.13 34.4893 1290.25 34.9427 1284.53 36.26C1284.27 36.3199 1283.99 36.2817 1283.76 36.1528C1283.52 36.0238 1283.34 35.813 1283.25 35.56C1283.06 35.0479 1282.85 34.547 1282.6 34.06C1281.39 31.6741 1279.49 29.7019 1277.15 28.3918C1274.82 27.0817 1272.15 26.4925 1269.48 26.6983C1266.81 26.9042 1264.26 27.896 1262.15 29.5486C1260.04 31.2012 1258.47 33.4408 1257.63 35.985C1257.07 37.6737 1256.86 39.4565 1256.99 41.2299C1257.13 43.0032 1257.62 44.7318 1258.43 46.3151C1258.68 46.8037 1258.96 47.2763 1259.27 47.73C1259.42 47.9532 1259.48 48.2233 1259.44 48.4895C1259.41 48.7557 1259.28 48.9995 1259.07 49.1751C1254.63 53.0073 1250.79 57.4837 1247.67 62.455C1247.53 62.6815 1247.31 62.8483 1247.05 62.9247C1246.8 63.001 1246.52 62.9816 1246.28 62.87C1245.78 62.6338 1245.27 62.4284 1244.75 62.2551C1241.33 61.1406 1237.61 61.4276 1234.4 63.053C1231.2 64.6784 1228.77 67.5095 1227.64 70.925C1227.09 72.6145 1226.88 74.3963 1227.01 76.1687C1227.15 77.941 1227.63 79.6692 1228.44 81.2545C1229.24 82.8397 1230.35 84.251 1231.7 85.4076C1233.05 86.5641 1234.61 87.4434 1236.3 87.995C1236.83 88.1608 1237.36 88.296 1237.9 88.4C1238.17 88.4519 1238.4 88.5985 1238.57 88.8122C1238.73 89.0259 1238.81 89.2919 1238.79 89.56C1238.36 95.4058 1238.81 101.283 1240.12 106.995C1240.18 107.256 1240.15 107.531 1240.02 107.767C1239.89 108.002 1239.68 108.183 1239.43 108.275C1238.92 108.46 1238.42 108.676 1237.93 108.92C1236.28 109.685 1234.8 110.773 1233.59 112.12C1232.37 113.467 1231.44 115.046 1230.84 116.761C1230.24 118.477 1230 120.295 1230.12 122.107C1230.25 123.919 1230.73 125.687 1231.55 127.308C1232.37 128.928 1233.51 130.367 1234.9 131.539C1236.28 132.71 1237.89 133.59 1239.63 134.127C1241.36 134.664 1243.19 134.846 1244.99 134.663C1246.8 134.479 1248.55 133.934 1250.14 133.06C1250.63 132.808 1251.1 132.527 1251.56 132.22C1251.74 132.097 1251.95 132.03 1252.17 132.03ZM1297.72 122.055C1290.78 122.064 1284.08 119.524 1278.89 114.92C1273.7 110.315 1270.38 103.965 1269.56 97.0748C1268.74 90.1847 1270.48 83.2339 1274.45 77.5416C1278.42 71.8493 1284.34 67.8116 1291.08 66.1947C1297.83 64.5779 1304.94 65.4944 1311.06 68.7703C1317.17 72.0463 1321.87 77.4537 1324.27 83.9664C1326.66 90.479 1326.58 97.6438 1324.04 104.101C1321.5 110.558 1316.68 115.858 1310.49 118.995C1306.53 121.005 1302.16 122.057 1297.72 122.065V122.055ZM1297.64 67.7101C1291.97 67.7263 1286.46 69.5933 1281.94 73.0277C1277.43 76.462 1274.16 81.2761 1272.62 86.7389C1271.09 92.2016 1271.39 98.0147 1273.46 103.295C1275.54 108.576 1279.28 113.036 1284.11 115.997C1288.95 118.959 1294.63 120.26 1300.27 119.705C1305.92 119.149 1311.23 116.766 1315.4 112.917C1319.56 109.069 1322.36 103.965 1323.37 98.3817C1324.37 92.7981 1323.53 87.0394 1320.96 81.98C1318.78 77.6713 1315.45 74.0541 1311.33 71.5338C1307.21 69.0134 1302.47 67.6894 1297.64 67.7101Z" fill="black"/>
<path d="M548.858 335.265C548.713 335.266 548.57 335.238 548.436 335.183C548.302 335.128 548.181 335.047 548.079 334.944C547.976 334.842 547.895 334.721 547.84 334.587C547.785 334.453 547.757 334.31 547.758 334.165V192.605C547.758 192.313 547.874 192.033 548.08 191.827C548.286 191.621 548.566 191.505 548.858 191.505H710.968C711.26 191.505 711.539 191.621 711.746 191.827C711.952 192.033 712.068 192.313 712.068 192.605C712.068 192.897 711.952 193.177 711.746 193.383C711.539 193.589 711.26 193.705 710.968 193.705H549.968V334.165C549.968 334.31 549.939 334.454 549.883 334.588C549.827 334.722 549.745 334.844 549.642 334.946C549.539 335.049 549.416 335.129 549.282 335.184C549.147 335.239 549.003 335.266 548.858 335.265Z" fill="black"/>
<path d="M772.792 781.535H1119.14C1130.01 781.501 1140.41 777.17 1148.1 769.489C1155.78 761.807 1160.11 751.398 1160.14 740.535L1160.22 42.105C1160.19 31.2404 1155.86 20.8295 1148.18 13.1471C1140.5 5.4647 1130.09 1.13533 1119.22 1.10498H772.877C762.013 1.13795 751.604 5.46817 743.922 13.15C736.24 20.8319 731.91 31.2412 731.877 42.105L731.797 740.535C731.83 751.398 736.159 761.806 743.84 769.488C751.521 777.17 761.929 781.501 772.792 781.535Z" fill="white"/>
<path d="M1119.14 782.635H772.793C761.637 782.602 750.947 778.155 743.059 770.266C735.171 762.377 730.725 751.686 730.693 740.53L730.773 42.1C730.787 30.9376 735.227 20.2362 743.121 12.3437C751.014 4.4511 761.716 0.0119093 772.878 0H1119.23C1130.39 0.0303502 1141.08 4.47562 1148.97 12.3643C1156.86 20.253 1161.3 30.9437 1161.33 42.1L1161.25 740.53C1161.24 751.694 1156.8 762.396 1148.9 770.29C1141.01 778.183 1130.31 782.623 1119.14 782.635ZM772.878 2.2C762.299 2.21191 752.157 6.41931 744.676 13.8993C737.195 21.3793 732.987 31.5211 732.973 42.1L732.893 740.53C732.918 751.105 737.13 761.24 744.607 768.718C752.084 776.196 762.219 780.409 772.793 780.435H1119.14C1129.72 780.423 1139.87 776.215 1147.35 768.734C1154.83 761.253 1159.04 751.11 1159.05 740.53L1159.14 42.1C1159.12 31.526 1154.9 21.3926 1147.43 13.9156C1139.95 6.43862 1129.82 2.2264 1119.24 2.2H772.878Z" fill="black"/>
<path d="M783.878 756.765H1108.07C1116.3 756.741 1124.19 753.46 1130.01 747.639C1135.84 741.817 1139.12 733.928 1139.14 725.695L1139.22 54.8C1139.2 46.5644 1135.92 38.6721 1130.09 32.8482C1124.27 27.0243 1116.38 23.7424 1108.14 23.72H783.958C775.724 23.7437 767.835 27.0246 762.012 32.8461C756.19 38.6676 752.908 46.5565 752.883 54.79L752.812 725.685C752.831 733.92 756.109 741.812 761.931 747.636C767.752 753.46 775.643 756.742 783.878 756.765Z" fill="#D1D1D1"/>
<path d="M986.192 46.9051H901.057C900.765 46.9051 900.486 46.7892 900.279 46.5829C900.073 46.3766 899.957 46.0968 899.957 45.8051C899.957 45.5133 900.073 45.2335 900.279 45.0273C900.486 44.821 900.765 44.7051 901.057 44.7051H986.192C986.484 44.7051 986.764 44.821 986.97 45.0273C987.176 45.2335 987.292 45.5133 987.292 45.8051C987.292 46.0968 987.176 46.3766 986.97 46.5829C986.764 46.7892 986.484 46.9051 986.192 46.9051Z" fill="black"/>
<path d="M1097 348.035H789.893C789.602 348.034 789.323 347.917 789.117 347.711C788.911 347.505 788.794 347.226 788.793 346.935V283.885C788.793 283.593 788.909 283.313 789.115 283.107C789.321 282.901 789.601 282.785 789.893 282.785H1097C1097.29 282.785 1097.57 282.901 1097.78 283.107C1097.99 283.313 1098.1 283.593 1098.1 283.885V346.935C1098.1 347.226 1097.99 347.505 1097.78 347.711C1097.57 347.917 1097.29 348.034 1097 348.035ZM791.003 345.835H1095.91V284.985H790.998L791.003 345.835Z" fill="black"/>
<path d="M881.016 325.842C886.231 323.682 888.707 317.704 886.547 312.489C884.387 307.274 878.409 304.798 873.194 306.958C867.979 309.118 865.503 315.096 867.663 320.311C869.823 325.526 875.801 328.002 881.016 325.842Z" fill="white"/>
<path d="M919.415 318.715C920.711 313.222 917.309 307.717 911.816 306.421C906.322 305.124 900.818 308.526 899.521 314.02C898.225 319.513 901.627 325.018 907.121 326.314C912.614 327.611 918.118 324.209 919.415 318.715Z" fill="white"/>
<path d="M945.823 325.845C951.037 323.685 953.514 317.707 951.354 312.492C949.194 307.278 943.215 304.801 938.001 306.961C932.786 309.121 930.31 315.1 932.47 320.314C934.63 325.529 940.608 328.005 945.823 325.845Z" fill="white"/>
<path d="M984.223 318.713C985.52 313.22 982.118 307.716 976.624 306.419C971.131 305.122 965.627 308.525 964.33 314.018C963.034 319.511 966.436 325.016 971.929 326.312C977.423 327.609 982.927 324.207 984.223 318.713Z" fill="white"/>
<path d="M1010.64 325.842C1015.85 323.682 1018.33 317.703 1016.17 312.489C1014.01 307.274 1008.03 304.798 1002.82 306.958C997.602 309.118 995.126 315.096 997.286 320.311C999.446 325.525 1005.42 328.002 1010.64 325.842Z" fill="white"/>
<path d="M826.804 314.422C830.91 314.394 834.216 311.042 834.187 306.936C834.158 302.83 830.807 299.524 826.7 299.553C822.594 299.581 819.289 302.933 819.318 307.04C819.346 311.146 822.698 314.451 826.804 314.422Z" fill="#949494"/>
<path d="M826.783 318.525C820.048 318.525 814.323 318.415 812.193 324.415C813.271 327.421 815.252 330.02 817.863 331.858C820.475 333.696 823.59 334.682 826.783 334.682C829.977 334.682 833.092 333.696 835.704 331.858C838.315 330.02 840.295 327.421 841.373 324.415C839.243 318.415 833.513 318.525 826.783 318.525Z" fill="#949494"/>
<path d="M1097 444.085H789.893C789.602 444.084 789.323 443.967 789.117 443.761C788.911 443.555 788.794 443.276 788.793 442.985V379.935C788.793 379.643 788.909 379.363 789.115 379.157C789.321 378.951 789.601 378.835 789.893 378.835H1097C1097.29 378.835 1097.57 378.951 1097.78 379.157C1097.99 379.363 1098.1 379.643 1098.1 379.935V442.985C1098.1 443.276 1097.99 443.555 1097.78 443.761C1097.57 443.967 1097.29 444.084 1097 444.085ZM791.003 441.885H1095.91V381.035H790.998L791.003 441.885Z" fill="black"/>
<path d="M895.675 413.772C896.971 408.278 893.569 402.774 888.076 401.477C882.582 400.181 877.078 403.583 875.781 409.076C874.485 414.57 877.887 420.074 883.38 421.371C888.874 422.667 894.378 419.265 895.675 413.772Z" fill="white"/>
<path d="M928.302 413.133C929.206 407.562 925.423 402.312 919.851 401.408C914.28 400.503 909.03 404.287 908.126 409.858C907.221 415.43 911.005 420.679 916.576 421.584C922.148 422.488 927.397 418.705 928.302 413.133Z" fill="white"/>
<path d="M960.481 413.77C961.778 408.276 958.376 402.772 952.882 401.475C947.389 400.179 941.884 403.581 940.588 409.074C939.291 414.568 942.694 420.072 948.187 421.369C953.68 422.665 959.185 419.263 960.481 413.77Z" fill="white"/>
<path d="M993.118 413.13C994.022 407.559 990.239 402.309 984.668 401.405C979.096 400.501 973.847 404.284 972.942 409.855C972.038 415.427 975.821 420.677 981.393 421.581C986.964 422.485 992.214 418.702 993.118 413.13Z" fill="white"/>
<path d="M1025.29 413.773C1026.59 408.279 1023.18 402.775 1017.69 401.478C1012.2 400.182 1006.69 403.584 1005.4 409.077C1004.1 414.571 1007.5 420.075 1013 421.372C1018.49 422.668 1023.99 419.266 1025.29 413.773Z" fill="white"/>
<path d="M1057.93 413.128C1058.84 407.556 1055.05 402.307 1049.48 401.402C1043.91 400.498 1038.66 404.281 1037.76 409.853C1036.85 415.424 1040.64 420.674 1046.21 421.578C1051.78 422.483 1057.03 418.699 1057.93 413.128Z" fill="white"/>
<path d="M841.309 409.21H817.199C816.983 409.209 816.77 409.251 816.571 409.333C816.372 409.415 816.192 409.535 816.039 409.687C815.887 409.839 815.766 410.019 815.684 410.218C815.601 410.417 815.559 410.63 815.559 410.845V418.065C815.561 419.532 815.852 420.985 816.415 422.34C816.978 423.695 817.803 424.926 818.842 425.962C819.881 426.999 821.114 427.82 822.471 428.38C823.828 428.94 825.281 429.227 826.749 429.225H831.749C834.712 429.228 837.554 428.053 839.652 425.961C841.749 423.868 842.93 421.028 842.934 418.065V410.845C842.934 410.413 842.763 409.999 842.458 409.692C842.154 409.386 841.74 409.213 841.309 409.21Z" fill="#949494"/>
<path d="M839.027 407.3C838.762 407.3 838.508 407.195 838.32 407.007C838.133 406.82 838.027 406.565 838.027 406.3V402.91C838.023 400.998 837.261 399.165 835.907 397.814C834.554 396.464 832.719 395.705 830.807 395.705H827.712C825.8 395.704 823.965 396.462 822.611 397.813C821.257 399.164 820.495 400.997 820.492 402.91V406.3C820.492 406.565 820.387 406.82 820.199 407.007C820.012 407.195 819.757 407.3 819.492 407.3C819.227 407.3 818.973 407.195 818.785 407.007C818.598 406.82 818.492 406.565 818.492 406.3V402.91C818.497 400.465 819.473 398.121 821.204 396.395C822.936 394.668 825.282 393.699 827.727 393.7H830.822C833.267 393.7 835.611 394.67 837.342 396.396C839.072 398.123 840.047 400.465 840.052 402.91V406.3C840.052 406.433 840.026 406.565 839.974 406.688C839.922 406.811 839.846 406.923 839.751 407.016C839.655 407.109 839.542 407.182 839.418 407.231C839.293 407.28 839.161 407.303 839.027 407.3Z" fill="#949494"/>
<path d="M831.723 415.93C831.724 415.494 831.61 415.065 831.392 414.687C831.174 414.309 830.859 413.996 830.48 413.779C830.102 413.563 829.672 413.45 829.236 413.453C828.8 413.456 828.372 413.574 827.996 413.796C827.621 414.018 827.311 414.336 827.098 414.717C826.885 415.097 826.776 415.528 826.784 415.964C826.791 416.4 826.913 416.827 827.139 417.2C827.365 417.574 827.685 417.881 828.068 418.09V422.845C828.068 423.159 828.193 423.461 828.415 423.683C828.637 423.905 828.939 424.03 829.253 424.03C829.567 424.03 829.869 423.905 830.091 423.683C830.313 423.461 830.438 423.159 830.438 422.845V418.09C830.827 417.879 831.151 417.567 831.377 417.187C831.603 416.806 831.723 416.372 831.723 415.93Z" fill="white"/>
<path d="M1027.86 556.26H859.043C842.386 556.26 828.883 569.763 828.883 586.42V589.15C828.883 605.807 842.386 619.31 859.043 619.31H1027.86C1044.51 619.31 1058.02 605.807 1058.02 589.15V586.42C1058.02 569.763 1044.51 556.26 1027.86 556.26Z" fill="white"/>
<path d="M1369.53 915H1073.53C1073.24 915 1072.96 914.884 1072.75 914.678C1072.54 914.472 1072.43 914.192 1072.43 913.9C1072.43 913.608 1072.54 913.328 1072.75 913.122C1072.96 912.916 1073.24 912.8 1073.53 912.8H1368.42V863.59C1368.42 863.298 1368.54 863.019 1368.74 862.812C1368.95 862.606 1369.23 862.49 1369.52 862.49C1369.81 862.49 1370.09 862.606 1370.3 862.812C1370.51 863.019 1370.62 863.298 1370.62 863.59V913.9C1370.62 914.19 1370.51 914.469 1370.3 914.675C1370.1 914.881 1369.82 914.997 1369.53 915Z" fill="black"/>
<path d="M1175.59 913.9H1265.4C1288.55 898.29 1309.9 879.93 1324.4 856.28C1333.81 840.9 1340.12 821.99 1334.44 804.875C1328.76 787.76 1307.11 775.725 1291.72 785.115C1305.22 775.35 1318.87 765.43 1329.37 752.51C1339.87 739.59 1347.04 723.09 1345.33 706.51C1343.62 689.93 1331.41 673.98 1314.97 671.34C1288.11 667.02 1265.62 693.635 1249.25 711.025C1227.63 733.985 1207.27 758.495 1192.25 786.365C1172.75 822.59 1162.82 865.535 1172.97 905.405C1173.69 908.281 1174.57 911.117 1175.59 913.9Z" fill="white"/>
<path d="M1265.4 915H1175.59C1175.36 915 1175.14 914.931 1174.96 914.802C1174.78 914.674 1174.64 914.491 1174.56 914.28C1173.53 911.465 1172.64 908.598 1171.91 905.69C1162.55 868.975 1169.44 826.42 1191.28 785.855C1204.22 761.855 1221.85 738.53 1248.43 710.285C1249.57 709.08 1250.74 707.83 1251.93 706.545C1267.81 689.5 1289.56 666.16 1315.13 670.27C1331.13 672.835 1344.55 688.37 1346.41 706.41C1348 721.785 1342.24 738.41 1330.21 753.205C1321.31 764.15 1310.21 772.925 1299.03 781.15C1303.99 780.294 1309.1 780.799 1313.8 782.61C1323.91 786.315 1332.22 794.715 1335.47 804.53C1340.43 819.485 1336.83 838.065 1325.32 856.855C1312.54 877.73 1293.69 896.145 1266.02 914.81C1265.84 914.936 1265.62 915.002 1265.4 915ZM1176.36 912.8H1265.06C1292.31 894.38 1310.87 876.23 1323.44 855.705C1329.91 845.15 1339.79 824.555 1333.38 805.205C1330.38 796.155 1322.38 788.09 1313.04 784.66C1305.58 781.925 1298.21 782.42 1292.27 786.04C1292.03 786.201 1291.73 786.259 1291.45 786.201C1291.16 786.143 1290.91 785.973 1290.75 785.73C1290.59 785.487 1290.53 785.189 1290.59 784.903C1290.65 784.617 1290.82 784.366 1291.06 784.205C1304.31 774.615 1318.02 764.705 1328.5 751.8C1340.16 737.46 1345.74 721.415 1344.22 706.62C1342.46 689.54 1329.8 674.84 1314.78 672.425C1290.36 668.505 1269.08 691.35 1253.54 708.03L1250.04 711.78C1223.59 739.875 1206.07 763.04 1193.22 786.885C1171.64 826.96 1164.83 868.955 1174.04 905.13C1174.73 907.855 1175.51 910.425 1176.36 912.8Z" fill="black"/>
<path d="M1224.84 915C1224.66 915 1224.48 914.951 1224.31 914.86C1224.19 914.791 1224.07 914.696 1223.98 914.583C1223.89 914.47 1223.82 914.34 1223.78 914.2C1223.74 914.06 1223.73 913.914 1223.75 913.77C1223.77 913.626 1223.81 913.486 1223.88 913.36C1229.81 902.675 1235.51 891.675 1240.83 880.675C1259.74 841.512 1274.69 800.555 1285.44 758.415C1285.52 758.132 1285.7 757.889 1285.95 757.74C1286.2 757.591 1286.5 757.548 1286.78 757.62C1287.07 757.692 1287.31 757.874 1287.46 758.125C1287.61 758.377 1287.65 758.677 1287.58 758.96C1276.78 801.242 1261.79 842.338 1242.81 881.635C1237.48 892.67 1231.76 903.705 1225.81 914.43C1225.71 914.603 1225.57 914.747 1225.4 914.847C1225.23 914.947 1225.04 915 1224.84 915Z" fill="black"/>
<path d="M1129.73 804.695C1124.84 824.385 1116.06 861.66 1129.95 900.925C1131.52 905.348 1133.33 909.679 1135.37 913.9H1197.95C1204.41 906.892 1210.41 899.474 1215.9 891.69C1231 870.12 1238.4 841.275 1228.1 817.04C1224.84 809.375 1219.91 802.26 1218.6 794.04C1215.46 774.6 1232.76 758.61 1247.81 745.91C1277.31 721.015 1306.2 690.105 1309.84 651.675C1312.89 619.57 1295.75 586.415 1267.79 570.34C1280.84 546.098 1290.66 520.256 1297 493.47C1299.62 482.42 1301.5 470.21 1296.2 460.165C1289.37 447.235 1272.94 442.535 1258.33 443.01C1215.83 444.4 1183.28 485.675 1170.25 503.31C1160.95 515.89 1141.42 542.95 1135.02 582.31C1129.02 619.19 1136.12 657.31 1142.88 693.65C1146.71 714.205 1149.57 722.84 1148.77 739.495C1147.46 766.765 1138.54 769.235 1129.73 804.695Z" fill="white"/>
<path d="M1197.95 915H1135.37C1135.16 915.003 1134.96 914.946 1134.78 914.837C1134.6 914.727 1134.46 914.568 1134.37 914.38C1132.31 910.121 1130.48 905.751 1128.9 901.29C1114.62 860.91 1124.1 822.765 1128.65 804.43C1132.52 788.865 1136.48 779.43 1139.65 771.875C1143.87 761.875 1146.91 754.61 1147.65 739.43C1148.27 726.48 1146.69 718.625 1144.07 705.62C1143.38 702.165 1142.57 698.25 1141.77 693.84C1134.94 657.14 1127.88 619.19 1133.9 582.125C1140.48 541.715 1160.7 514.35 1169.33 502.66C1198.39 463.335 1228.33 442.895 1258.26 441.92C1272.26 441.455 1289.87 445.875 1297.14 459.66C1302.58 469.96 1300.79 482.125 1298.04 493.73C1291.76 520.264 1282.07 545.875 1269.23 569.93C1296.84 586.32 1313.94 619.81 1310.91 651.785C1307.04 692.535 1275.52 723.945 1248.49 746.755C1232.99 759.85 1216.67 775.37 1219.65 793.865C1220.53 799.29 1222.99 804.16 1225.6 809.31C1226.79 811.68 1228.03 814.125 1229.1 816.61C1240.42 843.295 1230.17 873.215 1216.8 892.32C1211.27 900.142 1205.24 907.599 1198.75 914.645C1198.65 914.755 1198.52 914.844 1198.39 914.905C1198.25 914.966 1198.1 914.998 1197.95 915ZM1136.06 912.8H1197.47C1203.77 905.932 1209.62 898.67 1215 891.06C1228.04 872.435 1238.06 843.325 1227.08 817.47C1226.06 815.055 1224.84 812.64 1223.65 810.305C1221.08 805.23 1218.43 799.98 1217.5 794.215C1214.34 774.585 1231.11 758.555 1247.09 745.075C1273.8 722.535 1304.95 691.535 1308.74 651.575C1311.74 620.075 1294.66 587.075 1267.24 571.295C1266.98 571.151 1266.8 570.913 1266.72 570.632C1266.64 570.351 1266.68 570.05 1266.82 569.795C1279.82 545.641 1289.6 519.891 1295.93 493.2C1298.57 482.005 1300.32 470.32 1295.22 460.66C1288.42 447.775 1271.72 443.66 1258.36 444.09C1229.12 445.05 1199.77 465.185 1171.13 503.945C1162.59 515.5 1142.59 542.57 1136.1 582.445C1130.13 619.135 1137.16 656.89 1143.95 693.405C1144.77 697.8 1145.56 701.71 1146.25 705.155C1148.81 717.875 1150.5 726.285 1149.87 739.505C1149.12 755.075 1145.87 762.855 1141.71 772.7C1138.39 780.59 1134.63 789.53 1130.8 804.93C1126.3 823.055 1116.93 860.77 1130.99 900.525C1132.47 904.703 1134.16 908.8 1136.06 912.8Z" fill="black"/>
<path d="M1158.08 904.665H1158.02C1157.73 904.651 1157.46 904.522 1157.26 904.306C1157.07 904.091 1156.96 903.806 1156.98 903.515C1163.01 777.645 1189.61 649.25 1236.04 521.9C1236.15 521.636 1236.36 521.423 1236.62 521.308C1236.88 521.192 1237.17 521.182 1237.44 521.28C1237.71 521.378 1237.93 521.576 1238.05 521.833C1238.18 522.089 1238.2 522.384 1238.11 522.655C1191.75 649.795 1165.2 777.97 1159.17 903.62C1159.16 903.902 1159.04 904.169 1158.84 904.364C1158.63 904.558 1158.36 904.667 1158.08 904.665Z" fill="black"/>
<mask id="mask0_469_810" style="mask-type:luminance" maskUnits="userSpaceOnUse" x="0" y="2" width="881" height="913">
<path d="M880.195 2.17505H0V914.095H880.195V2.17505Z" fill="white"/>
</mask>
<g mask="url(#mask0_469_810)">
<path d="M294.573 897.655H-0.00157166C-0.29331 897.655 -0.573098 897.539 -0.779388 897.333C-0.985678 897.127 -1.10156 896.847 -1.10156 896.555C-1.10156 896.263 -0.985678 895.984 -0.779388 895.777C-0.573098 895.571 -0.29331 895.455 -0.00157166 895.455H294.573C294.865 895.455 295.145 895.571 295.351 895.777C295.558 895.984 295.673 896.263 295.673 896.555C295.673 896.847 295.558 897.127 295.351 897.333C295.145 897.539 294.865 897.655 294.573 897.655Z" fill="black"/>
<path d="M623.953 595.405L379.453 629.295L198.413 628.455C167.653 738.18 523.413 779.72 523.413 779.72L379.708 960.005C372.954 968.447 368.886 978.72 368.029 989.497C367.171 1000.27 369.564 1011.06 374.898 1020.47C405.083 1073.43 469.048 1158.18 501.838 1200.66C509.963 1211.16 526.653 1207.55 529.688 1194.62L546.928 1121.12L747.928 781.765C800.993 692.23 727.043 581.11 623.953 595.405Z" fill="white"/>
<path d="M514.272 1207.91C511.701 1207.91 509.165 1207.31 506.861 1206.17C504.556 1205.03 502.546 1203.37 500.987 1201.33C466.377 1156.49 403.852 1073.46 373.987 1021.01C368.505 1011.43 366.04 1000.41 366.915 989.408C367.79 978.402 371.964 967.916 378.892 959.32L521.392 780.575C509.867 779.14 449.322 771.2 384.192 755.46C287.272 732.035 226.917 703.435 204.807 670.46C195.807 657.015 193.307 642.785 197.402 628.155C197.468 627.925 197.607 627.722 197.798 627.578C197.99 627.434 198.223 627.356 198.462 627.355L379.422 628.2L623.837 594.315C671.967 587.64 718.582 608.625 745.482 649.07C772.382 689.515 773.692 740.57 748.952 782.31L547.977 1121.52L530.777 1194.87C530.063 1197.98 528.473 1200.83 526.194 1203.07C523.916 1205.31 521.044 1206.85 517.917 1207.51C516.72 1207.77 515.498 1207.9 514.272 1207.91ZM199.272 629.56C195.667 643.255 198.132 656.595 206.602 669.235C228.102 701.285 289.667 730.36 384.677 753.32C456.602 770.705 522.912 778.55 523.572 778.63C523.767 778.653 523.951 778.727 524.108 778.845C524.264 778.963 524.386 779.121 524.461 779.302C524.536 779.483 524.561 779.68 524.534 779.874C524.507 780.068 524.429 780.252 524.307 780.405L380.602 960.69C373.95 968.943 369.942 979.011 369.1 989.577C368.259 1000.14 370.624 1010.72 375.887 1019.92C405.712 1072.25 468.167 1155.2 502.742 1199.99C504.438 1202.18 506.721 1203.85 509.328 1204.8C511.934 1205.75 514.756 1205.94 517.467 1205.35C520.178 1204.77 522.667 1203.42 524.644 1201.48C526.622 1199.53 528.008 1197.07 528.642 1194.37L545.882 1120.87C545.91 1120.76 545.952 1120.65 546.007 1120.56L747.007 781.205C771.312 740.175 770.007 690.015 743.597 650.305C717.187 610.595 671.377 589.955 624.097 596.51L379.597 630.4C379.546 630.406 379.494 630.406 379.442 630.4L199.272 629.56Z" fill="black"/>
<path d="M270.983 708.765L462.083 703.955C511.076 702.721 559.332 716.054 600.741 742.265C642.151 768.476 674.85 806.387 694.698 851.195C761.293 1001.47 860.108 1210.27 933.643 1300.59C942.288 1311.21 933.534 1326.92 919.948 1325.14L712.068 1297.89C695.511 1295.72 679.685 1289.73 665.842 1280.39C651.999 1271.05 640.519 1258.62 632.308 1244.08L446.263 917.265C446.263 917.265 235.223 896.84 229.683 896.49C229.683 896.49 33.2684 883.49 91.1134 653.39L257.888 607.13L316.433 617.795L270.983 708.765Z" fill="white"/>
<path d="M922.055 1326.38C921.306 1326.38 920.557 1326.33 919.815 1326.23L711.94 1298.98C695.225 1296.75 679.253 1290.68 665.273 1281.25C651.294 1271.82 639.687 1259.28 631.36 1244.62L445.59 918.32C433.42 917.145 234.935 897.94 229.615 897.605C228.845 897.555 152.115 891.815 108.86 832.375C77.3596 789.09 71.0296 728.785 90.0446 653.14C90.0936 652.952 90.1908 652.779 90.3267 652.64C90.4626 652.5 90.6325 652.399 90.8196 652.345L257.595 606.08C257.759 606.041 257.93 606.041 258.095 606.08L316.645 616.73C316.787 616.756 316.922 616.81 317.044 616.888C317.165 616.966 317.27 617.068 317.352 617.187C317.434 617.306 317.492 617.44 317.523 617.581C317.553 617.722 317.556 617.868 317.53 618.01C317.504 618.152 317.45 618.288 317.372 618.409C317.293 618.531 317.192 618.635 317.073 618.718C316.954 618.8 316.82 618.858 316.679 618.888C316.538 618.919 316.392 618.921 316.25 618.895L257.94 608.265L92.0247 654.265C73.3647 728.98 79.6447 788.45 110.645 831.065C153.285 889.67 229.015 895.36 229.775 895.41C235.275 895.755 437.775 915.355 446.385 916.185C446.56 916.202 446.729 916.261 446.877 916.357C447.025 916.452 447.147 916.582 447.235 916.735L633.29 1243.53C641.448 1257.9 652.82 1270.18 666.517 1279.42C680.213 1288.67 695.862 1294.61 712.24 1296.8L920.115 1324.05C922.904 1324.43 925.744 1323.96 928.262 1322.7C930.781 1321.44 932.862 1319.46 934.233 1317C935.605 1314.54 936.203 1311.72 935.95 1308.92C935.697 1306.12 934.604 1303.45 932.815 1301.28C860.51 1212.48 762.88 1007.74 693.71 851.615C653.14 760.045 562.21 702.49 462.13 705.025L271.025 709.84C270.88 709.845 270.736 709.822 270.601 709.771C270.465 709.719 270.342 709.642 270.237 709.542C270.132 709.442 270.048 709.323 269.99 709.19C269.932 709.058 269.902 708.915 269.9 708.77C269.896 708.626 269.92 708.482 269.972 708.347C270.023 708.212 270.101 708.088 270.201 707.983C270.3 707.878 270.419 707.794 270.551 707.735C270.683 707.676 270.825 707.644 270.97 707.64L462.075 702.825C511.284 701.588 559.754 714.982 601.347 741.31C642.939 767.639 675.783 805.718 695.72 850.725C764.84 1006.73 862.37 1211.28 934.52 1299.89C936.459 1302.26 937.688 1305.13 938.065 1308.17C938.442 1311.21 937.95 1314.29 936.648 1317.06C935.346 1319.84 933.286 1322.18 930.706 1323.83C928.126 1325.48 925.132 1326.37 922.07 1326.39L922.055 1326.38Z" fill="black"/>
<path d="M192.184 307.61L220.079 229.975L268.849 216.11L279.804 241.145L261.019 315.45L192.184 307.61Z" fill="white"/>
<path d="M261.02 316.55H260.895L192.06 308.705C191.898 308.685 191.742 308.63 191.604 308.542C191.467 308.455 191.35 308.339 191.262 308.201C191.175 308.063 191.119 307.908 191.098 307.746C191.078 307.584 191.094 307.42 191.145 307.265L219.045 229.63C219.103 229.465 219.2 229.317 219.328 229.197C219.456 229.078 219.611 228.991 219.78 228.945L268.55 215.075C268.806 215.003 269.08 215.026 269.32 215.14C269.561 215.254 269.753 215.451 269.86 215.695L280.815 240.73C280.911 240.954 280.932 241.203 280.875 241.44L262.085 315.72C262.024 315.957 261.886 316.166 261.694 316.317C261.501 316.467 261.264 316.549 261.02 316.55ZM193.685 306.675L260.185 314.245L278.645 241.265L268.23 217.455L220.925 230.905L193.685 306.675Z" fill="black"/>
<path d="M340.208 171.065C347.803 163.295 354.753 153.23 353.283 142.46C351.733 131.095 339.403 122.46 328.183 124.845C334.006 118.053 339.076 110.65 343.303 102.765C315.018 96.5651 284.803 96.0551 257.703 106.225C230.603 116.395 207.043 138.3 199.428 166.235C196.258 177.855 195.973 190.705 201.203 201.555C206.703 212.955 217.593 220.88 229.083 226.17C244.043 233.065 261.378 236.225 277.113 231.365C287.738 228.085 297.303 220.66 302.683 210.865C304.062 208.38 305.139 205.74 305.893 203C306.428 201 306.113 197.135 307.218 195.5C308.528 193.575 312.833 192.225 314.843 191.025C317.713 189.308 320.508 187.475 323.228 185.525C329.304 181.216 334.987 176.378 340.208 171.065Z" fill="black"/>
<path d="M225.904 206.295C224.769 201.17 218.544 198.33 213.499 199.725C208.454 201.12 204.789 205.725 203.154 210.725C200.939 217.45 202.039 225.345 206.574 230.77C211.109 236.195 219.134 238.63 225.699 236.01C234.324 249.615 247.474 263.765 263.039 267.765C271.794 270.045 281.539 270.33 289.474 266.015C295.024 263.015 299.289 257.965 302.229 252.37C305.169 246.775 306.884 240.62 308.229 234.445C312.152 216.608 313.316 198.275 311.679 180.085C311.414 177.15 311.054 174.145 309.679 171.54C307.749 167.855 304.064 165.45 300.369 163.54C291.929 159.215 282.439 156.675 272.979 157.255C263.519 157.835 254.144 161.765 247.679 168.715C241.494 175.4 239.424 184.65 237.144 193.475C236.354 196.525 225.904 206.295 225.904 206.295Z" fill="white"/>
<path d="M275.039 270.52C270.893 270.483 266.769 269.922 262.764 268.85C244.929 264.215 231.764 247.45 225.264 237.35C218.589 239.565 210.514 237.18 205.764 231.48C201.159 225.98 199.764 217.695 202.144 210.385C204.099 204.43 208.249 200.055 213.239 198.67C214.786 198.267 216.399 198.178 217.981 198.407C219.563 198.637 221.084 199.18 222.454 200.005C224.192 201.007 225.587 202.511 226.454 204.32C230.384 200.54 235.674 195.005 236.139 193.205L236.569 191.535C238.719 183.13 240.944 174.44 246.929 167.97C253.274 161.115 262.769 156.825 272.989 156.2C282.029 155.64 291.699 157.86 300.949 162.6C304.359 164.35 308.549 166.89 310.734 171.055C312.189 173.83 312.579 177 312.849 180.01C314.504 198.312 313.333 216.759 309.379 234.705C308.144 240.3 306.454 246.84 303.264 252.91C299.924 259.255 295.359 264.135 290.059 267.01C285.189 269.61 279.974 270.52 275.039 270.52ZM225.699 234.91C225.883 234.909 226.065 234.954 226.228 235.041C226.39 235.129 226.528 235.255 226.629 235.41C232.799 245.145 245.764 262.15 263.319 266.71C270.279 268.525 280.379 269.71 288.954 265.06C293.869 262.395 298.124 257.83 301.259 251.87C304.329 246.03 305.969 239.67 307.169 234.22C311.075 216.503 312.232 198.289 310.599 180.22C310.334 177.315 309.994 174.505 308.724 172.085C306.829 168.47 303.004 166.17 299.884 164.585C290.984 160.02 281.714 157.895 273.064 158.42C263.404 159.01 254.444 163.045 248.484 169.49C242.879 175.55 240.724 183.99 238.639 192.105L238.209 193.78C237.379 196.98 228.439 205.46 226.654 207.125C226.512 207.258 226.339 207.351 226.15 207.395C225.961 207.439 225.764 207.432 225.579 207.375C225.394 207.315 225.228 207.209 225.096 207.066C224.965 206.923 224.873 206.749 224.829 206.56C224.588 205.584 224.149 204.668 223.539 203.869C222.929 203.07 222.161 202.405 221.284 201.915C220.17 201.241 218.933 200.797 217.644 200.609C216.356 200.421 215.044 200.493 213.784 200.82C209.564 201.985 205.889 205.925 204.189 211.1C202.014 217.7 203.279 225.16 207.409 230.1C211.789 235.335 219.309 237.41 225.284 235.025C225.413 234.958 225.554 234.919 225.699 234.91Z" fill="black"/>
<path d="M219.85 224.585H219.815C219.67 224.581 219.528 224.549 219.397 224.49C219.265 224.431 219.146 224.347 219.047 224.242C218.948 224.137 218.871 224.013 218.82 223.878C218.769 223.743 218.745 223.599 218.75 223.455C218.798 221.406 218.318 219.378 217.355 217.569C216.391 215.759 214.977 214.229 213.25 213.125C213.127 213.049 213.02 212.949 212.936 212.831C212.852 212.713 212.792 212.58 212.759 212.439C212.726 212.298 212.722 212.152 212.745 212.01C212.769 211.867 212.821 211.73 212.897 211.608C212.974 211.485 213.074 211.378 213.191 211.294C213.309 211.21 213.442 211.15 213.583 211.117C213.724 211.084 213.87 211.08 214.012 211.103C214.155 211.127 214.292 211.179 214.415 211.255C216.467 212.566 218.147 214.384 219.292 216.533C220.438 218.682 221.01 221.09 220.955 223.525C220.943 223.81 220.821 224.08 220.615 224.278C220.409 224.475 220.135 224.585 219.85 224.585Z" fill="black"/>
<path d="M512.09 452.7L512.06 415.1C482.115 385.025 453.24 358.15 427.795 334.5C400.455 309.095 369.115 288.565 332.04 292.85C265.54 300.535 174.23 316.78 107.585 329.41C50.1446 340.3 6.85962 388.33 2.53962 446.65C-3.10038 522.765 9.90461 592.915 19.6446 644.38C41.0096 757.285 168.425 666.48 168.425 666.48L381.54 631.175L387.145 523.84L445.145 577.67C472.745 603.29 513.09 600.67 543.145 578.015C550.156 572.649 556.578 566.555 562.305 559.835C526.695 506.37 512.09 452.7 512.09 452.7Z" fill="#949494"/>
<path d="M621.232 401.805L548.172 452.53C536.062 439.53 523.977 427.075 512.057 415.1L512.087 452.7C512.087 452.7 472.777 558.455 562.292 559.835C601.917 514.02 622.502 435.225 621.232 401.805Z" fill="white"/>
<path d="M562.294 560.935C562.03 560.936 561.774 560.842 561.574 560.67C561.355 560.477 561.221 560.206 561.2 559.915C561.179 559.624 561.274 559.337 561.464 559.115C602.694 511.44 621.304 432.615 620.139 401.85C620.133 401.706 620.155 401.561 620.205 401.425C620.255 401.29 620.331 401.165 620.429 401.059C620.527 400.952 620.645 400.866 620.776 400.806C620.908 400.745 621.049 400.711 621.194 400.705C621.34 400.695 621.486 400.714 621.623 400.763C621.761 400.812 621.887 400.888 621.994 400.987C622.101 401.087 622.186 401.207 622.245 401.341C622.303 401.475 622.334 401.619 622.334 401.765C623.019 419.765 617.579 448.42 608.144 476.525C596.824 510.24 580.834 540.08 563.144 560.555C563.038 560.676 562.907 560.773 562.761 560.838C562.614 560.904 562.455 560.937 562.294 560.935Z" fill="black"/>
<path d="M82.1685 589.115C81.8906 589.113 81.6233 589.008 81.4185 588.82C81.2073 588.62 81.0832 588.345 81.073 588.054C81.0627 587.763 81.167 587.48 81.3635 587.265C101.864 565.225 126.529 545.795 150.364 527.01C155.599 522.88 160.814 518.77 165.949 514.66C166.177 514.478 166.468 514.393 166.758 514.426C167.048 514.458 167.314 514.605 167.496 514.833C167.678 515.061 167.763 515.352 167.73 515.642C167.698 515.932 167.552 516.198 167.324 516.38C162.184 520.49 156.984 524.608 151.724 528.735C127.954 547.475 103.379 566.85 82.9735 588.765C82.8704 588.875 82.7457 588.963 82.6073 589.023C82.4688 589.084 82.3195 589.115 82.1685 589.115Z" fill="black"/>
<path d="M123.114 546.885C122.833 546.885 122.563 546.778 122.359 546.584C122.155 546.39 122.033 546.126 122.019 545.845L117.689 466.715C117.673 466.424 117.773 466.138 117.967 465.921C118.161 465.703 118.433 465.572 118.724 465.555C118.869 465.543 119.016 465.562 119.154 465.608C119.292 465.655 119.419 465.729 119.527 465.826C119.636 465.923 119.723 466.042 119.785 466.174C119.846 466.306 119.88 466.449 119.884 466.595L124.214 545.725C124.222 545.869 124.202 546.013 124.154 546.149C124.107 546.285 124.033 546.41 123.936 546.517C123.84 546.625 123.724 546.712 123.594 546.774C123.464 546.836 123.323 546.872 123.179 546.88L123.114 546.885Z" fill="black"/>
<path d="M387.144 524.94C386.999 524.937 386.857 524.906 386.725 524.849C386.593 524.791 386.473 524.708 386.373 524.604C386.274 524.499 386.195 524.377 386.143 524.242C386.091 524.108 386.065 523.964 386.069 523.82C386.449 506.345 388.464 477.87 390.414 450.32C391.379 436.62 392.294 423.685 393.004 412.245C393.029 411.96 393.165 411.696 393.382 411.509C393.599 411.322 393.881 411.228 394.167 411.245C394.453 411.263 394.72 411.391 394.913 411.603C395.106 411.815 395.208 412.094 395.199 412.38C394.494 423.83 393.574 436.77 392.609 450.475C390.659 477.975 388.649 506.435 388.269 523.855C388.267 524 388.236 524.144 388.178 524.277C388.121 524.411 388.037 524.531 387.932 524.632C387.828 524.733 387.704 524.812 387.569 524.865C387.433 524.918 387.289 524.943 387.144 524.94Z" fill="black"/>
<path d="M170.998 665.005C170.773 665.006 170.553 664.938 170.368 664.809C170.183 664.681 170.042 664.5 169.964 664.289C169.885 664.078 169.873 663.848 169.93 663.63C169.986 663.412 170.108 663.217 170.278 663.07C207.428 631.145 231.038 594.785 231.278 594.425C231.355 594.301 231.456 594.193 231.575 594.109C231.694 594.024 231.829 593.964 231.971 593.931C232.114 593.899 232.261 593.896 232.405 593.921C232.549 593.946 232.686 594 232.809 594.079C232.931 594.158 233.037 594.261 233.12 594.381C233.203 594.502 233.261 594.637 233.29 594.78C233.32 594.923 233.321 595.07 233.293 595.214C233.266 595.357 233.21 595.494 233.128 595.615C232.888 595.98 209.128 632.615 171.718 664.74C171.518 664.912 171.263 665.006 170.998 665.005Z" fill="black"/>
<path d="M578.144 529.3C557.104 529.095 536.754 515.395 528.644 495.98C528.583 495.846 528.549 495.701 528.545 495.553C528.541 495.406 528.567 495.259 528.621 495.122C528.675 494.985 528.756 494.86 528.86 494.755C528.963 494.649 529.086 494.566 529.222 494.509C529.358 494.453 529.504 494.424 529.652 494.425C529.799 494.426 529.945 494.456 530.081 494.515C530.216 494.573 530.338 494.658 530.44 494.765C530.542 494.871 530.621 494.997 530.674 495.135C538.449 513.76 557.974 526.905 578.174 527.1C578.465 527.1 578.745 527.216 578.951 527.422C579.158 527.629 579.274 527.908 579.274 528.2C579.274 528.492 579.158 528.772 578.951 528.978C578.745 529.184 578.465 529.3 578.174 529.3H578.144Z" fill="black"/>
<path d="M554.728 547.765C553.215 547.771 551.754 547.212 550.631 546.198C549.508 545.183 548.805 543.786 548.658 542.28C548.511 540.774 548.931 539.267 549.837 538.055C550.742 536.842 552.067 536.012 553.553 535.725C555.135 535.413 556.775 535.743 558.114 536.641C559.452 537.538 560.379 538.931 560.691 540.513C561.002 542.094 560.673 543.734 559.775 545.073C558.877 546.411 557.485 547.338 555.903 547.65C555.516 547.725 555.123 547.763 554.728 547.765ZM550.923 542.44C551.097 543.321 551.57 544.114 552.263 544.685C552.955 545.257 553.824 545.57 554.722 545.572C555.62 545.573 556.491 545.264 557.186 544.696C557.881 544.128 558.357 543.336 558.534 542.456C558.711 541.576 558.578 540.662 558.156 539.869C557.734 539.077 557.051 538.455 556.222 538.11C555.393 537.765 554.471 537.718 553.611 537.977C552.752 538.235 552.008 538.785 551.508 539.53C551.224 539.953 551.027 540.427 550.926 540.927C550.826 541.426 550.825 541.94 550.923 542.44Z" fill="black"/>
<path d="M190.394 280.49L257.734 297.345L269.589 284.14L296.264 307.165L286.639 347.92L261.019 315.45L252.744 359.24L172.344 318.995L190.394 280.49Z" fill="white"/>
<path d="M172.344 320.095C172.182 320.097 172.023 320.061 171.879 319.99C171.748 319.929 171.63 319.843 171.532 319.737C171.435 319.631 171.359 319.506 171.31 319.37C171.261 319.235 171.239 319.091 171.245 318.946C171.252 318.802 171.287 318.661 171.349 318.53L189.399 280.03C189.507 279.799 189.692 279.612 189.923 279.503C190.154 279.393 190.416 279.368 190.664 279.43L257.359 296.115L268.774 283.405C268.966 283.191 269.234 283.061 269.522 283.043C269.809 283.025 270.092 283.121 270.309 283.31L286.144 296.965C286.26 297.057 286.356 297.172 286.427 297.302C286.498 297.432 286.542 297.576 286.556 297.723C286.57 297.871 286.554 298.02 286.509 298.161C286.464 298.303 286.391 298.434 286.294 298.546C286.197 298.658 286.079 298.75 285.946 298.815C285.813 298.881 285.667 298.918 285.519 298.926C285.371 298.934 285.223 298.912 285.084 298.861C284.944 298.81 284.817 298.732 284.709 298.63L269.709 285.68L258.574 298.08C258.439 298.228 258.268 298.337 258.077 298.395C257.886 298.453 257.682 298.458 257.489 298.41L191.009 281.765L173.339 319.465C173.249 319.654 173.109 319.813 172.932 319.924C172.756 320.036 172.552 320.095 172.344 320.095Z" fill="black"/>
<path d="M169.943 514.305C169.943 514.305 207.793 571.67 232.198 595.02C232.198 595.02 294.628 538.98 316.293 497.065C316.293 497.065 339.378 525.62 346.173 512.785C346.173 512.785 360.638 519.83 365.443 504.93C365.443 504.93 375.943 500.01 376.598 487.38C377.253 474.75 368.173 464.055 368.173 464.055C368.173 464.055 389.673 483.43 395.928 477.45C402.183 471.47 382.303 446.99 367.898 437.745C353.493 428.5 330.098 411.93 283.928 432.93C241.738 452.125 169.943 514.305 169.943 514.305Z" fill="white"/>
<path d="M347.274 512.215C347.025 512.213 346.784 512.128 346.59 511.971C346.395 511.815 346.26 511.598 346.204 511.355C342.323 494.001 333.896 477.99 321.789 464.965C321.59 464.752 321.485 464.468 321.495 464.176C321.505 463.885 321.631 463.609 321.844 463.41C322.058 463.211 322.342 463.105 322.633 463.116C322.925 463.126 323.2 463.252 323.399 463.465C335.774 476.774 344.385 493.135 348.349 510.87C348.381 511.011 348.385 511.157 348.36 511.3C348.335 511.442 348.282 511.579 348.205 511.701C348.127 511.823 348.026 511.929 347.908 512.012C347.789 512.095 347.656 512.154 347.514 512.185C347.435 512.202 347.355 512.213 347.274 512.215Z" fill="black"/>
<path d="M365.393 503.325C365.119 503.325 364.854 503.222 364.652 503.037C364.449 502.852 364.323 502.598 364.298 502.325C362.215 482.963 353.296 464.978 339.143 451.6C339.037 451.502 338.952 451.383 338.892 451.252C338.832 451.12 338.799 450.978 338.794 450.834C338.789 450.69 338.812 450.546 338.862 450.41C338.913 450.275 338.99 450.151 339.088 450.045C339.187 449.939 339.305 449.854 339.437 449.794C339.568 449.734 339.71 449.701 339.854 449.696C339.999 449.69 340.143 449.714 340.278 449.764C340.413 449.815 340.537 449.892 340.643 449.99C355.187 463.735 364.354 482.214 366.498 502.11C366.513 502.255 366.498 502.402 366.456 502.542C366.413 502.681 366.343 502.811 366.25 502.924C366.157 503.036 366.043 503.129 365.914 503.197C365.785 503.265 365.644 503.307 365.498 503.32L365.393 503.325Z" fill="black"/>
<path d="M367.433 464.88C367.221 464.88 367.014 464.818 366.837 464.703C366.659 464.588 366.519 464.423 366.433 464.23C362.845 456.306 357.348 449.397 350.433 444.12C350.311 444.035 350.208 443.927 350.129 443.801C350.05 443.675 349.998 443.535 349.974 443.389C349.951 443.242 349.958 443.092 349.994 442.948C350.03 442.805 350.095 442.669 350.185 442.551C350.275 442.433 350.388 442.335 350.517 442.261C350.645 442.188 350.788 442.141 350.935 442.124C351.083 442.107 351.232 442.12 351.374 442.163C351.516 442.205 351.649 442.275 351.763 442.37C358.978 447.862 364.714 455.064 368.453 463.325C368.573 463.59 368.583 463.892 368.481 464.165C368.379 464.438 368.173 464.659 367.908 464.78C367.758 464.847 367.596 464.881 367.433 464.88Z" fill="black"/>
<path d="M313.798 495.43C313.651 495.43 313.507 495.401 313.372 495.344C313.237 495.288 313.115 495.205 313.013 495.1L301.408 483.265C301.203 483.056 301.091 482.775 301.094 482.483C301.097 482.191 301.216 481.912 301.425 481.708C301.634 481.503 301.915 481.39 302.208 481.394C302.5 481.397 302.778 481.516 302.983 481.725L314.583 493.57C314.734 493.725 314.837 493.921 314.878 494.133C314.918 494.346 314.895 494.566 314.811 494.766C314.728 494.966 314.587 495.136 314.406 495.256C314.226 495.376 314.014 495.44 313.798 495.44V495.43Z" fill="black"/>
<path d="M263.55 559.405C263.401 559.405 263.254 559.375 263.117 559.316C262.981 559.258 262.857 559.172 262.755 559.065C241.305 536.699 223.449 511.146 209.82 483.315C209.756 483.185 209.718 483.044 209.709 482.9C209.7 482.756 209.719 482.611 209.766 482.475C209.813 482.338 209.886 482.212 209.981 482.103C210.077 481.995 210.193 481.906 210.322 481.843C210.452 481.779 210.593 481.741 210.737 481.732C210.881 481.723 211.026 481.742 211.163 481.789C211.299 481.836 211.425 481.909 211.534 482.004C211.642 482.1 211.731 482.215 211.795 482.345C225.326 509.973 243.052 535.34 264.345 557.545C264.494 557.701 264.593 557.897 264.632 558.109C264.67 558.321 264.646 558.539 264.561 558.737C264.476 558.935 264.335 559.104 264.156 559.223C263.976 559.342 263.765 559.405 263.55 559.405Z" fill="black"/>
<path d="M241.644 574.34C240.133 574.38 238.65 573.929 237.418 573.052C236.187 572.176 235.273 570.923 234.815 569.483C234.358 568.042 234.381 566.492 234.881 565.066C235.381 563.639 236.332 562.414 237.589 561.575C237.646 561.538 237.706 561.506 237.769 561.48C237.82 561.435 237.875 561.394 237.934 561.36C239.519 560.385 241.426 560.079 243.236 560.51C245.046 560.941 246.611 562.073 247.587 563.658C248.562 565.242 248.868 567.15 248.437 568.96C248.006 570.77 246.874 572.335 245.289 573.31C244.197 573.994 242.932 574.351 241.644 574.34ZM238.934 563.315L238.824 563.395C237.752 564.099 237.001 565.197 236.732 566.45C236.463 567.704 236.698 569.013 237.387 570.095C238.075 571.177 239.162 571.944 240.412 572.23C241.662 572.517 242.974 572.3 244.066 571.627C245.157 570.954 245.939 569.878 246.244 568.632C246.548 567.387 246.35 566.071 245.692 564.971C245.034 563.87 243.97 563.072 242.728 562.75C241.487 562.428 240.169 562.608 239.059 563.25L238.934 563.315Z" fill="black"/>
<path d="M642.502 334.625L527.787 357.265C526.581 357.505 525.444 358.014 524.463 358.757C523.481 359.499 522.681 360.454 522.122 361.55L452.862 497.465C452.17 498.824 451.874 500.35 452.008 501.869C452.142 503.387 452.701 504.838 453.62 506.054C454.54 507.271 455.783 508.204 457.208 508.747C458.633 509.29 460.182 509.421 461.677 509.125L572.427 487.27C573.606 487.036 574.718 486.544 575.684 485.829C576.65 485.114 577.445 484.194 578.012 483.135L651.237 346.435C651.965 345.079 652.292 343.544 652.18 342.009C652.069 340.474 651.524 339.002 650.609 337.765C649.694 336.527 648.446 335.575 647.011 335.02C645.576 334.464 644.012 334.327 642.502 334.625Z" fill="black"/>
<path d="M594.774 359.765C593.174 358.765 591.009 357.905 589.574 359.11C588.324 360.16 588.444 362.11 588.674 363.765L595.424 412.085C592.804 397.805 586.274 383.78 575.114 374.7C572.364 372.465 567.949 370.7 565.769 373.495C564.454 375.17 564.809 377.6 565.314 379.695C569.619 397.425 580.264 414.53 577.424 432.505C574.224 422.063 569.686 412.078 563.924 402.8C561.569 399.01 558.824 395.18 554.824 393.3C550.824 391.42 545.294 392.38 543.364 396.375C541.314 400.62 544.074 405.55 546.464 409.64C553.425 421.561 557.962 434.74 559.814 448.42C556.034 438.22 551.679 427.275 542.569 421.565C539.899 419.89 536.789 418.735 533.689 419.065C530.589 419.395 527.574 421.53 526.814 424.615C525.974 428.005 527.894 431.415 529.514 434.515C535.749 446.606 538.445 460.21 537.294 473.765C536.449 483.84 527.294 498.985 541.129 503.99C545.874 505.71 551.129 504.875 555.874 503.2C569.239 498.465 579.529 487.6 588.504 476.465C597.674 465.095 606.109 452.935 611.759 439.365C617.409 425.795 622.259 410.25 619.789 395.65C617.319 381.05 607.174 367.525 594.774 359.765Z" fill="white"/>
</g>
</svg>
